<svg preserveAspectRatio="none" overflow="visible" style="display: block;" width="14.6667" height="14.6667" viewBox="0 0 14.6667 14.6667" fill="none" xmlns="http://www.w3.org/2000/svg">
<path id="Vector" d="M11 3.66667H11.0067M4 0.666667H10.6667C12.5076 0.666667 14 2.15905 14 4V10.6667C14 12.5076 12.5076 14 10.6667 14H4C2.15905 14 0.666667 12.5076 0.666667 10.6667V4C0.666667 2.15905 2.15905 0.666667 4 0.666667ZM9.99997 6.91333C10.0822 7.46816 9.98747 8.03481 9.72914 8.53267C9.47081 9.03054 9.06207 9.43427 8.56105 9.68645C8.06004 9.93862 7.49227 10.0264 6.93849 9.93729C6.38472 9.84818 5.87314 9.58672 5.47653 9.19011C5.07991 8.79349 4.81846 8.28191 4.72935 7.72814C4.64024 7.17437 4.72801 6.60659 4.98019 6.10558C5.23236 5.60457 5.63609 5.19582 6.13396 4.93749C6.63182 4.67916 7.19847 4.58439 7.7533 4.66666C8.31925 4.75059 8.8432 5.01431 9.24776 5.41887C9.65233 5.82343 9.91604 6.34738 9.99997 6.91333Z" stroke="#272726" stroke-width="1.33333" stroke-linecap="round" stroke-linejoin="round"/>
</svg>
