<svg preserveAspectRatio="none" overflow="visible" style="display: block;" width="14.674" height="13.3393" viewBox="0 0 14.674 13.3393" fill="none" xmlns="http://www.w3.org/2000/svg">
<path id="Vector" d="M7.34366 4.67426V7.34093M7.34366 10.0076H7.35033M13.8303 10.6743L8.497 1.34093C8.38071 1.13573 8.21207 0.965056 8.00828 0.84631C7.80449 0.727564 7.57286 0.665 7.337 0.665C7.10114 0.665 6.8695 0.727564 6.66571 0.84631C6.46193 0.965056 6.29329 1.13573 6.177 1.34093L0.843664 10.6743C0.726119 10.8778 0.664483 11.1089 0.665003 11.3439C0.665524 11.579 0.728183 11.8098 0.846628 12.0128C0.965074 12.2159 1.1351 12.384 1.33946 12.5002C1.54383 12.6163 1.77527 12.6764 2.01033 12.6743H12.677C12.9109 12.674 13.1407 12.6122 13.3432 12.4951C13.5457 12.378 13.7138 12.2097 13.8307 12.007C13.9475 11.8044 14.009 11.5745 14.009 11.3406C14.0089 11.1067 13.9473 10.8769 13.8303 10.6743Z" stroke="#F59E0A" stroke-width="1.33" stroke-linecap="round" stroke-linejoin="round"/>
</svg>
