<svg preserveAspectRatio="none" overflow="visible" style="display: block;" width="14.6633" height="10.6633" viewBox="0 0 14.6633 10.6633" fill="none" xmlns="http://www.w3.org/2000/svg">
<path id="Vector" d="M9.99833 3.99833H11.3317M9.99833 6.665H11.3317M3.445 7.33167C3.58243 6.94101 3.83773 6.60264 4.17568 6.36328C4.51362 6.12392 4.91754 5.99536 5.33167 5.99536C5.74579 5.99536 6.14971 6.12392 6.48765 6.36328C6.8256 6.60264 7.08091 6.94101 7.21833 7.33167M6.665 4.665C6.665 5.40138 6.06805 5.99833 5.33167 5.99833C4.59529 5.99833 3.99833 5.40138 3.99833 4.665C3.99833 3.92862 4.59529 3.33167 5.33167 3.33167C6.06805 3.33167 6.665 3.92862 6.665 4.665ZM1.99833 0.665H12.665C13.4014 0.665 13.9983 1.26195 13.9983 1.99833V8.665C13.9983 9.40138 13.4014 9.99833 12.665 9.99833H1.99833C1.26195 9.99833 0.665 9.40138 0.665 8.665V1.99833C0.665 1.26195 1.26195 0.665 1.99833 0.665Z" stroke="#6C6C6C" stroke-width="1.33" stroke-linecap="round" stroke-linejoin="round"/>
</svg>
